<svg width="24" height="24" viewBox="0 0 24 24" fill="none" xmlns="http://www.w3.org/2000/svg">
<path fill-rule="evenodd" clip-rule="evenodd" d="M22 7.80003C22 4.59678 19.4032 2.00003 16.2 2.00003H7.8C4.59675 2.00003 2 4.59678 2 7.80003V16.2C2 19.4033 4.59675 22 7.8 22H16.2C19.4032 22 22 19.4033 22 16.2V7.80003ZM4 7.60001C4 5.61179 5.61177 4.00001 7.6 4.00001H16.4C18.3882 4.00001 20 5.61179 20 7.60001V16.4C20 18.3882 18.3882 20 16.4 20H7.6C5.61177 20 4 18.3882 4 16.4V7.60001ZM18.5 6.75001C18.5 6.05966 17.9404 5.50001 17.25 5.50001C16.5596 5.50001 16 6.05966 16 6.75001C16 7.44037 16.5596 8.00001 17.25 8.00001C17.9404 8.00001 18.5 7.44037 18.5 6.75001ZM17 12C17 9.23859 14.7614 7.00001 12 7.00001C9.23857 7.00001 7 9.23859 7 12C7 14.7614 9.23857 17 12 17C14.7614 17 17 14.7614 17 12ZM9 12C9 10.3432 10.3431 9.00001 12 9.00001C13.6569 9.00001 15 10.3432 15 12C15 13.6569 13.6569 15 12 15C10.3431 15 9 13.6569 9 12Z" fill="#0B1D26"/>
</svg>
