<svg width="24" height="24" viewBox="0 0 24 24" fill="none" xmlns="http://www.w3.org/2000/svg">
<path fill-rule="evenodd" clip-rule="evenodd" d="M19.9944 6.68815C20.8624 6.58442 21.6896 6.35373 22.4592 6.01238C21.8839 6.87302 21.1563 7.62886 20.3177 8.23395C20.326 8.41805 20.3302 8.60314 20.3302 8.78918C20.3302 14.4605 16.0134 21 8.1195 21C5.69591 21 3.44003 20.2894 1.54077 19.0717C1.87651 19.1114 2.21812 19.1318 2.56453 19.1318C4.57527 19.1318 6.42576 18.4457 7.89454 17.2945C6.01653 17.26 4.43161 16.0191 3.88546 14.3142C4.14755 14.3642 4.4164 14.3912 4.69294 14.3912C5.08434 14.3912 5.46349 14.3387 5.82359 14.2406C3.86033 13.8463 2.38098 12.1118 2.38098 10.0324C2.38098 10.0143 2.38098 9.99639 2.38139 9.97846C2.95996 10.2999 3.62179 10.4929 4.32523 10.5153C3.17364 9.74563 2.41601 8.43204 2.41601 6.94309C2.41601 6.15656 2.62765 5.41935 2.99709 4.78551C5.11375 7.38203 8.27609 9.0906 11.8429 9.2696C11.7697 8.95546 11.7317 8.6279 11.7317 8.29155C11.7317 5.92147 13.6534 4 16.0235 4C17.2579 4 18.3732 4.52112 19.156 5.3552C20.1336 5.16278 21.052 4.80564 21.8813 4.31378C21.5609 5.31598 20.8803 6.15701 19.9944 6.68815Z" fill="#0B1D26"/>
</svg>
